<svg xmlns="http://www.w3.org/2000/svg" xmlns:xlink="http://www.w3.org/1999/xlink" width="500" zoomAndPan="magnify" viewBox="0 0 375 374.999991" height="500" preserveAspectRatio="xMidYMid meet" version="1.0"><defs><g/></defs><g fill="rgb(0%, 0%, 0%)" fill-opacity="1"><g transform="translate(121.435044, 213.763976)"><g><path d="M 19.53125 -23.628906 C 16.5 -25.066406 13.519531 -25.066406 13.253906 -25.066406 C 10.539062 -25.066406 7.929688 -26.664062 7.929688 -29.75 C 7.929688 -33.15625 10.324219 -34.914062 13.253906 -34.914062 C 16.019531 -34.914062 18.363281 -33.476562 18.46875 -30.441406 C 18.46875 -30.28125 18.734375 -30.015625 19.054688 -30.015625 L 25.707031 -30.015625 C 26.078125 -30.015625 26.34375 -30.28125 26.292969 -30.441406 C 26.183594 -37.679688 20.542969 -42.578125 13.253906 -42.578125 C 6.441406 -42.578125 0 -37.734375 0 -29.75 C 0 -24.800781 2.5 -21.023438 6.917969 -19 C 10.003906 -17.5625 12.878906 -17.5625 13.253906 -17.5625 C 15.648438 -17.457031 18.574219 -15.539062 18.574219 -12.402344 C 18.574219 -9.578125 16.074219 -7.664062 13.253906 -7.664062 C 13.253906 -7.664062 13.253906 -7.664062 13.199219 -7.664062 L 13.199219 0 C 13.253906 0 13.253906 0 13.253906 0 C 20.0625 0 26.449219 -4.417969 26.449219 -12.402344 C 26.449219 -17.402344 24.003906 -21.554688 19.53125 -23.628906 Z M 19.53125 -23.628906 "/></g></g></g><g fill="rgb(0%, 0%, 0%)" fill-opacity="1"><g transform="translate(149.214572, 213.763976)"><g><path d="M 33.421875 -0.636719 L 17.242188 -42.257812 C 17.085938 -42.683594 16.339844 -42.683594 16.179688 -42.257812 L 0.0546875 -0.636719 C -0.105469 -0.320312 0.105469 0 0.585938 0 L 7.875 0 C 8.089844 0 8.355469 -0.105469 8.410156 -0.320312 L 16.710938 -24.054688 L 25.121094 -0.320312 C 25.171875 -0.105469 25.441406 0 25.597656 0 L 32.945312 0 C 33.316406 0 33.582031 -0.320312 33.421875 -0.636719 Z M 33.421875 -0.636719 "/></g></g></g><g fill="rgb(0%, 0%, 0%)" fill-opacity="1"><g transform="translate(184.338112, 213.763976)"><g><path d="M 33.421875 -0.636719 L 17.242188 -42.257812 C 17.085938 -42.683594 16.339844 -42.683594 16.179688 -42.257812 L 0.0546875 -0.636719 C -0.105469 -0.320312 0.105469 0 0.585938 0 L 7.875 0 C 8.089844 0 8.355469 -0.105469 8.410156 -0.320312 L 16.710938 -24.054688 L 25.121094 -0.320312 C 25.171875 -0.105469 25.441406 0 25.597656 0 L 32.945312 0 C 33.316406 0 33.582031 -0.320312 33.421875 -0.636719 Z M 33.421875 -0.636719 "/></g></g></g><g fill="rgb(0%, 0%, 0%)" fill-opacity="1"><g transform="translate(219.461653, 213.763976)"><g><path d="M 7.558594 -42.578125 L 0.585938 -42.578125 C 0.265625 -42.578125 0 -42.3125 0 -42.097656 L 0 -25.386719 L 8.144531 -25.386719 L 8.144531 -34.808594 C 17.402344 -35.285156 24.269531 -31.402344 24.269531 -21.289062 C 24.269531 -8.144531 13.304688 -7.609375 8.144531 -7.824219 L 8.144531 -17.191406 L 0 -17.191406 L 0 -0.480469 C 0 -0.265625 0.265625 0 0.585938 0 L 7.558594 0 C 18.148438 0 32.464844 -3.085938 32.464844 -21.289062 C 32.464844 -40.183594 17.9375 -42.578125 7.558594 -42.578125 Z M 7.558594 -42.578125 "/></g></g></g><g fill="rgb(0%, 0%, 0%)" fill-opacity="1"><g transform="translate(223.274513, 169.94682)"><g><path d="M 1.046875 -0.171875 L 0.875 -1.171875 L 5.15625 -1.875 L 5.71875 -2.640625 L 5.421875 -4.375 L 4.65625 -4.921875 L 1.28125 -4.375 L -0.125 -5.390625 L -0.5 -7.609375 L 0.515625 -9.046875 L 5.171875 -9.8125 L 5.34375 -8.828125 L 1.1875 -8.140625 L 0.640625 -7.375 L 0.890625 -5.9375 L 1.640625 -5.390625 L 5.015625 -5.9375 L 6.453125 -4.90625 L 6.859375 -2.40625 L 5.828125 -0.953125 Z M 1.046875 -0.171875 "/></g></g></g><g fill="rgb(0%, 0%, 0%)" fill-opacity="1"><g transform="translate(231.465847, 168.862908)"><g><path d="M 0.75 0.078125 L 0.859375 -0.9375 L 1.921875 -0.828125 L 2.609375 -7.609375 L 1.546875 -7.71875 L 1.65625 -8.71875 L 4.890625 -8.390625 L 4.78125 -7.390625 L 3.703125 -7.5 L 3.015625 -0.71875 L 4.09375 -0.609375 L 3.984375 0.40625 Z M 0.75 0.078125 "/></g></g></g><g fill="rgb(0%, 0%, 0%)" fill-opacity="1"><g transform="translate(236.585968, 169.180813)"><g><path d="M 0.96875 0.390625 L 4.21875 -7.828125 L 8.6875 -6.0625 L 9.71875 -3.671875 L 7.84375 1.09375 L 5.4375 2.15625 Z M 2.34375 -0.125 L 5.34375 1.0625 L 6.953125 0.34375 L 8.5625 -3.71875 L 7.875 -5.359375 L 4.875 -6.546875 Z M 2.34375 -0.125 "/></g></g></g><g fill="rgb(0%, 0%, 0%)" fill-opacity="1"><g transform="translate(244.534561, 172.3406)"><g><path d="M 0.796875 0.6875 L 6.578125 -6 L 10.203125 -2.859375 L 10.375 -0.25 L 7.03125 3.625 L 4.421875 3.828125 Z M 2.265625 0.671875 L 4.6875 2.765625 L 6.453125 2.625 L 9.3125 -0.6875 L 9.203125 -2.453125 L 6.78125 -4.546875 Z M 2.265625 0.671875 "/></g></g></g><g fill="rgb(0%, 0%, 0%)" fill-opacity="1"><g transform="translate(250.976348, 178.307683)"><g><path d="M 0.40625 0.625 L 1.25 0.0625 L 1.84375 0.96875 L 7.546875 -2.796875 L 6.953125 -3.703125 L 7.78125 -4.25 L 9.578125 -1.53125 L 8.75 -0.984375 L 8.15625 -1.890625 L 2.453125 1.875 L 3.046875 2.78125 L 2.203125 3.34375 Z M 0.40625 0.625 "/></g></g></g><g fill="rgb(0%, 0%, 0%)" fill-opacity="1"><g transform="translate(253.964143, 182.485879)"><g><path d="M -0.03125 3.890625 L 1.125 3.515625 L 0.640625 1.984375 L 1.453125 0.390625 L 7.46875 -1.53125 L 9.0625 -0.71875 L 10.328125 3.25 L 9.515625 4.84375 L 3.5 6.765625 L 1.90625 5.953125 L 1.421875 4.421875 L 0.265625 4.796875 Z M 1.703125 2.140625 L 2.046875 3.21875 L 3.265625 2.828125 L 3.5625 3.734375 L 2.34375 4.125 L 2.6875 5.1875 L 3.515625 5.609375 L 8.84375 3.90625 L 9.265625 3.078125 L 8.28125 0.03125 L 7.453125 -0.390625 L 2.125 1.3125 Z M 1.703125 2.140625 "/></g></g></g><g fill="rgb(0%, 0%, 0%)" fill-opacity="1"><g transform="translate(256.537086, 190.517393)"><g><path d="M -0.046875 2.140625 L 1.25 0.90625 L 8.828125 1.078125 L 8.796875 2.171875 L 1.578125 2 L 0.90625 2.640625 L 0.84375 5.828125 L 1.484375 6.5 L 8.703125 6.671875 L 8.671875 7.765625 L 1.09375 7.59375 L -0.140625 6.296875 Z M -0.046875 2.140625 "/></g></g></g><g fill="rgb(0%, 0%, 0%)" fill-opacity="1"><g transform="translate(256.041579, 199.261455)"><g><path d="M -0.21875 0.71875 L 0.75 1.015625 L 0.4375 2.046875 L 6.96875 4.046875 L 7.28125 3.015625 L 8.234375 3.3125 L 7.28125 6.421875 L 6.328125 6.125 L 6.640625 5.09375 L 0.109375 3.09375 L -0.203125 4.125 L -1.171875 3.828125 Z M -0.21875 0.71875 "/></g></g></g></svg>